<?xml version="1.0" encoding="utf-8"?>
<!-- Generator: Adobe Illustrator 28.0.0, SVG Export Plug-In . SVG Version: 6.00 Build 0)  -->
<svg version="1.1" id="Layer_1" xmlns="http://www.w3.org/2000/svg" xmlns:xlink="http://www.w3.org/1999/xlink" x="0px" y="0px"
	 viewBox="0 0 550 550" style="enable-background:new 0 0 550 550;" xml:space="preserve">
<style type="text/css">
	.st0{fill:#31272A;}
	.st1{fill:#E58FA6;stroke:#31272A;stroke-miterlimit:10;}
	.st2{fill:#CBE3C9;stroke:#31272A;stroke-miterlimit:10;}
	.st3{fill:#F8EFE8;stroke:#31272A;stroke-miterlimit:10;}
	.st4{fill:#E58FA6;}
	.st5{fill:#CBE3C9;}
	.st6{fill:#F8EFE8;}
	.st7{fill:none;stroke:#F8EFE8;stroke-linecap:round;stroke-miterlimit:10;}
	.st8{fill:none;stroke:#31272A;stroke-width:2;stroke-linecap:round;stroke-miterlimit:10;}
	.st9{fill:none;stroke:#E58FA6;stroke-miterlimit:10;}
	.st10{fill:#CBE3C9;stroke:#31272A;stroke-width:2;stroke-miterlimit:10;}
	.st11{fill:#F8EFE8;stroke:#31272A;stroke-width:2;stroke-miterlimit:10;}
</style>
<path class="st0" d="M363.24,342.22c-1.67,6.03-3.26,11.79-4.93,17.83c3.25,3.31,7.07,6.97,10.63,10.87
	c4.89,5.36,9.37,11.05,11.83,18.01c0.56,1.58,0.92,3.34,0.9,5.01c-0.06,4.1-2.41,6.57-6.42,7.76c-6.86,2.04-12.45-0.42-17.52-4.68
	c-5.75-4.83-9.72-11.05-13.26-17.57c-0.99-1.82-1.96-3.65-2.99-5.57c-5.04,2.03-10.14,2.43-15.65,1.34
	c2.13,4.82,3.05,9.5,2.81,14.42c-0.38,7.83-3.54,14.58-8.35,20.54c-11.32,14.03-26.28,22.14-43.69,25.92
	c-9.82,2.13-19.67,2.28-29.37-0.82c-11.83-3.79-20.3-11.51-25.15-22.82c-5.58-13.01-6.35-26.4-1.27-39.83
	c2.78-7.35,7.31-13.49,13.73-18.07c1.63-1.16,1.79-2.27,1.57-4.06c-1.26-10.43-2.47-20.87-3.48-31.33c-0.22-2.29-0.6-3.81-2.55-5.51
	c-3.57-3.12-5.47-8.08-4.24-12.33c1.08-3.72,1.68-8.19,5.04-11.16c1.55-1.37,2.99-2.48,5.2-1.38c0.58-0.71,1.07-1.45,1.68-2.05
	c2.12-2.07,5.03-1.52,6.16,1.23c0.61,1.5,0.94,3.12,1.47,4.94c6.51-4.3,13.72-6.55,21.27-8.03c-2.14-0.38-4.35-0.56-6.41-1.2
	c-1.23-0.38-2.24-1.46-3.35-2.22c1.06-1.03,1.94-2.41,3.2-3.03c2.53-1.24,4.95-0.09,7.19,1.17c1.08,0.61,2.05,1.41,3.1,2.15
	c0.83-3.53,0.47-31.48-0.42-32.91c-0.83,0.73-1.6,1.52-2.49,2.17c-0.47,0.34-1.13,0.43-1.7,0.63c-0.17-0.61-0.55-1.24-0.49-1.82
	c0.3-2.58,0.73-5.15,1.12-7.72c0.1-0.66,0.22-1.31,0.34-1.99c-3.22-0.91-6.41-1.62-9.48-2.71c-13.31-4.73-23.58-13.57-32.17-24.49
	c-10.55-13.41-17.67-28.5-20.95-45.28c-3.12-16-2.4-31.63,5.18-46.47c5.22-10.22,12.72-18.33,22.37-24.51
	c16.66-10.68,34.87-13.79,54.26-11.12c14.9,2.06,28.12,7.91,39.2,18.11c10.87,10,17.21,22.49,19.44,37.12
	c1.83,11.99,0.36,23.72-2.97,35.17c-5.12,17.56-13.96,33.13-27.09,46c-9.58,9.39-20.67,16.15-34.28,17.97
	c-0.57,0.08-1.11,0.31-1.75,0.5c0.82,1.55,1.62,2.96,2.34,4.42c0.36,0.73,0.84,1.54,0.81,2.29c-0.07,1.55-0.44,3.08-0.68,4.61
	c-1.41-0.27-2.83-0.54-4.49-0.85c-0.15,0.2-0.53,1.3-1.21,1.53c-0.75,0.26-1.77-0.26-2.85-0.48c0,9.79,0,19.65,0,29.99
	c1.15-0.93,2.04-1.76,3.04-2.42c1.79-1.19,3.59-2.37,5.49-3.36c1.32-0.69,2.88-0.81,3.68,0.82c0.87,1.76-0.12,3.1-1.61,3.87
	c-1.9,0.98-3.94,1.69-5.92,2.51c-0.54,0.22-1.1,0.37-2.23,0.74c1.15,0.41,1.79,0.82,2.44,0.83c14.33,0.24,24.88,7.56,33.78,17.99
	c1.6,1.87,3.16,3.78,4.84,5.57c0.39,0.42,1.35,0.75,1.83,0.56c9.49-3.73,18.47-1.32,27.33,2.22c4.75,1.9,9.06,4.46,12.06,8.82
	c0.37,0.54,1.34,0.84,2.07,0.93c6.31,0.76,12.49,1.9,18.33,4.64c5.51,2.59,9.2,6.73,11.3,12.34c3.37,8.98,5.07,18.22,3.68,27.81
	c-0.31,2.16-1.06,4.34-1.99,6.33c-1.6,3.42-4.56,4.3-8.02,2.8c-5.83-2.51-9.33-7.26-11.34-12.9c-1.83-5.14-3.03-10.55-4-15.93
	c-0.4-2.2-0.98-3.39-3.16-3.67C363.6,342.36,363.18,342.21,363.24,342.22z M276.44,85.76c-4.97,0.39-9.98,0.53-14.91,1.21
	c-16.4,2.27-30.56,9.25-41.63,21.6c-15.04,16.77-18.57,36.62-14.5,58.28c1.87,9.96,5.38,19.3,10.14,28.21
	c7.82,14.62,17.62,27.48,32.07,36.21c11.31,6.84,23.52,9.19,36.45,6.58c10.38-2.09,19.21-7.47,27.03-14.5
	c11.2-10.06,19.29-22.39,25.12-36.1c7.7-18.09,10.94-36.73,4.88-56.12c-3.82-12.22-10.82-22.26-20.88-30.03
	C307.39,91.19,292.7,86.29,276.44,85.76z M236.46,354.78c-6.39,4.76-11.36,10.38-14.2,17.79c-3.86,10.08-4.23,20.37-1.69,30.74
	c4.93,20.1,19.24,32.02,39.81,32.74c13.62,0.48,26.34-3.08,38.25-9.7c9.33-5.19,17.41-11.71,23.17-20.83
	c4.64-7.34,6.72-15.27,4.72-23.86c-1.79-7.67-6.26-13.77-12.24-18.74c-2.76-2.29-5.77-4.27-8.56-6.31
	c-0.66,4.23-1.01,8.08-1.93,11.8c-0.85,3.46-3.2,4.9-6.68,4.53c-4.57-0.49-7.66-3.38-10.19-6.93c-3.62-5.08-5.19-11.01-6.84-16.9
	c-0.17-0.61-0.74-1.53-1.19-1.57c-4.18-0.43-8.38-0.71-12.05-0.99c-0.88,6.14-1.37,11.94-2.63,17.57
	c-1.32,5.9-3.61,11.52-8.47,15.61c-3.65,3.07-7.68,2.77-10.41-1.14c-1.77-2.53-3.31-5.34-4.33-8.24
	C239.27,365.39,238.02,360.25,236.46,354.78z M302.2,319.19c0.45-0.02,0.9-0.04,1.34-0.07c0.04,0.88,0.15,1.77,0.11,2.65
	c-0.15,3.95-0.64,7.9-0.45,11.83c0.3,6.4,1.07,12.77,1.54,19.16c0.11,1.51,0.67,2.38,1.99,3.13c6.88,3.94,12.81,8.99,17.07,15.75
	c0.87,1.38,1.82,1.99,3.28,2.27c7.6,1.48,14.29-0.79,20.43-5.06c8.98-6.23,12.31-15.48,13.58-25.8c0.15-1.23-0.29-1.68-1.43-2.02
	c-3.43-1.01-6.82-2.13-10.22-3.25c-0.69-0.23-1.31-0.64-1.97-0.96c0.06-0.22,0.13-0.43,0.19-0.65c0.6,0.03,1.23-0.05,1.78,0.12
	c5.75,1.82,11.51,3.62,17.21,5.59c0.73,0.25,1.43,1.36,1.64,2.19c1.32,5.47,2.09,11.11,3.84,16.43c1.87,5.66,5.16,10.59,10.94,13.23
	c2.53,1.15,5.06,0.43,6.24-2.09c0.87-1.87,1.59-3.9,1.88-5.93c1.29-9.05-0.29-17.82-3.29-26.33c-2.05-5.83-5.66-10.46-11.64-12.8
	c-9.61-3.77-19.54-5.16-29.81-3.92c-0.28,0.03-0.59-0.22-1.35-0.52c3.52-2.05,7.04-0.89,10.64-1.56c-0.6-0.75-1.01-1.31-1.47-1.83
	c-3.2-3.67-7.52-5.53-11.93-7.14c-6.56-2.4-13.46-4.84-20.24-2.22c-5.26,2.04-7.58-0.1-10.44-3.73
	c-5.72-7.26-12.34-13.55-21.22-16.91c-4.41-1.67-8.96-2.5-13.79-2.46c-0.05,0.55-0.12,0.9-0.12,1.26c-0.01,18.82-0.01,37.64,0,56.46
	c0,2.05,0.5,2.31,2.89,1.67c-0.23-1.61-0.51-3.22-0.69-4.85c-0.16-1.46-0.21-2.94-0.31-4.41c0.32-0.02,0.64-0.04,0.96-0.06
	c0.14,0.68,0.33,1.36,0.41,2.04c0.96,7.41,2.37,14.72,5.42,21.59c1.95,4.41,4.48,8.45,9.06,10.66c4.54,2.2,7.57,0.81,8.64-4.08
	c0.49-2.24,0.86-4.59,0.73-6.86c-0.49-8.33-1.41-16.64-1.79-24.97C301.61,329.58,302.06,324.38,302.2,319.19z M266.23,344.52
	c0.08-0.02,0.15-0.04,0.23-0.07c0-19.16,0-38.32,0-57.65c-6.96,0.91-13.37,2.85-19.16,6.57c-6.03,3.88-10.42,9.05-12.46,16.04
	c-1.44,4.93-0.9,9.9-0.5,14.89c1.07,13.31,2.43,26.6,5.96,39.52c1.22,4.47,3.11,8.85,5.35,12.91c2.5,4.53,6.72,4.71,10.31,0.96
	c3.38-3.54,5.25-7.93,6.56-12.54c2.07-7.3,2.8-14.75,1.98-22.33c-0.12-1.14-0.02-2.3-0.02-3.45c0.3-0.02,0.6-0.05,0.89-0.07
	C265.66,341.04,265.95,342.78,266.23,344.52z M356.97,360.97c-3.28,5.82-8.29,9.34-14.05,12.25c1.13,2.25,2.08,4.34,3.2,6.34
	c3.82,6.79,8.05,13.28,14.5,17.92c4.45,3.21,9.32,4.52,14.74,2.75c2.98-0.97,5.05-3.38,4.9-6.2c-0.1-1.82-0.41-3.74-1.12-5.41
	C374.36,377.45,365.96,369.15,356.97,360.97z M236.62,290.86c-1.28-0.38-2.32-1.07-3.09-0.85c-2.36,0.68-4.49,4.87-4.17,7.45
	c0.07,0.53-0.2,1.46-0.56,1.61c-2.08,0.88-2.19,2.67-1.82,4.33c0.55,2.45,1.34,4.89,2.36,7.17c0.56,1.25,1.82,2.18,3.1,3.64
	c1.21-8.27,4.63-14.59,10.65-19.47c0.43-0.34,0.74-1.17,0.67-1.72c-0.19-1.39-0.52-2.8-1.01-4.11c-0.9-2.4-2.7-2.64-4.37-0.62
	C237.68,289.14,237.14,290.1,236.62,290.86z M276.05,246.9c0.95,1.2,1.51,2.04,2.21,2.73c0.43,0.42,1.09,0.6,1.64,0.89
	c0.18-0.68,0.68-1.46,0.49-2.01c-0.65-1.88-1.65-3.63-2.33-5.5c-1.02-2.79-2.97-3.12-5.82-2.26c0.77,3.36-1.61,7.35,2.23,10.5
	C275,249.8,275.42,248.64,276.05,246.9z M269.46,283.32c-3.38-3.94-9.18-5.32-11-1.66C261.96,283.15,265.6,283.2,269.46,283.32z
	 M270.31,239.99c-0.78,0.37-2.07,0.6-2.19,1.11c-0.67,2.78-1.06,5.63-1.57,8.67C270.2,247.49,271.65,244.56,270.31,239.99z
	 M274.44,281.86c0.15,0.3,0.31,0.61,0.46,0.91c2.58-1.11,5.19-2.16,7.71-3.39c0.41-0.2,0.43-1.19,0.63-1.82
	c-0.59-0.05-1.32-0.35-1.74-0.1C279.11,278.86,276.79,280.38,274.44,281.86z"/>
<path class="st1" d="M276.44,85.76c16.26,0.53,30.95,5.43,43.78,15.35c10.06,7.77,17.06,17.82,20.88,30.03
	c6.06,19.39,2.82,38.03-4.88,56.12c-5.83,13.71-13.92,26.04-25.12,36.1c-7.83,7.03-16.65,12.4-27.03,14.5
	c-12.93,2.61-25.14,0.26-36.45-6.58c-14.45-8.74-24.25-21.59-32.07-36.21c-4.76-8.91-8.27-18.25-10.14-28.21
	c-4.07-21.66-0.54-41.51,14.5-58.28c11.07-12.35,25.23-19.33,41.63-21.6C266.46,86.29,271.47,86.15,276.44,85.76z"/>
<path class="st2" d="M236.46,354.78c1.57,5.47,2.81,10.61,4.55,15.57c1.02,2.9,2.56,5.71,4.33,8.24c2.73,3.92,6.76,4.22,10.41,1.14
	c4.86-4.09,7.15-9.71,8.47-15.61c1.26-5.63,1.74-11.43,2.63-17.57c3.67,0.28,7.87,0.55,12.05,0.99c0.46,0.05,1.02,0.96,1.19,1.57
	c1.65,5.89,3.22,11.82,6.84,16.9c2.53,3.54,5.61,6.43,10.19,6.93c3.48,0.37,5.82-1.06,6.68-4.53c0.92-3.71,1.26-7.57,1.93-11.8
	c2.79,2.04,5.81,4.02,8.56,6.31c5.98,4.97,10.45,11.07,12.24,18.74c2.01,8.59-0.07,16.52-4.72,23.86
	c-5.77,9.11-13.84,15.64-23.17,20.83c-11.91,6.62-24.63,10.18-38.25,9.7c-20.57-0.72-34.88-12.64-39.81-32.74
	c-2.54-10.37-2.17-20.66,1.69-30.74C225.1,365.17,230.06,359.54,236.46,354.78z"/>
<path class="st3" d="M302.2,319.19c-0.14,5.19-0.59,10.4-0.35,15.57c0.38,8.33,1.3,16.64,1.79,24.97c0.13,2.27-0.24,4.62-0.73,6.86
	c-1.07,4.89-4.1,6.28-8.64,4.08c-4.58-2.21-7.1-6.25-9.06-10.66c-3.04-6.87-4.46-14.18-5.42-21.59c-0.09-0.69-0.27-1.36-0.41-2.04
	c-0.32,0.02-0.64,0.04-0.96,0.06c0.1,1.47,0.15,2.94,0.31,4.41c0.18,1.62,0.46,3.24,0.69,4.85c-2.39,0.64-2.88,0.38-2.89-1.67
	c-0.01-18.82-0.01-37.64,0-56.46c0-0.36,0.06-0.71,0.12-1.26c4.83-0.04,9.38,0.79,13.79,2.46c8.88,3.36,15.5,9.65,21.22,16.91
	c2.86,3.63,5.18,5.77,10.44,3.73c6.78-2.63,13.68-0.19,20.24,2.22c4.41,1.61,8.73,3.47,11.93,7.14c0.46,0.53,0.88,1.09,1.47,1.83
	c-3.6,0.67-7.12-0.49-10.64,1.56c0.76,0.3,1.07,0.56,1.35,0.52c10.28-1.24,20.2,0.15,29.81,3.92c5.98,2.34,9.59,6.97,11.64,12.8
	c2.99,8.51,4.57,17.28,3.29,26.33c-0.29,2.03-1,4.07-1.88,5.93c-1.18,2.52-3.71,3.24-6.24,2.09c-5.78-2.63-9.07-7.56-10.94-13.23
	c-1.75-5.32-2.52-10.96-3.84-16.43c-0.2-0.83-0.91-1.94-1.64-2.19c-5.7-1.97-11.46-3.77-17.21-5.59c-0.55-0.17-1.19-0.09-1.78-0.12
	c-0.06,0.22-0.13,0.43-0.19,0.65c0.65,0.33,1.28,0.74,1.97,0.96c3.39,1.12,6.79,2.24,10.22,3.25c1.14,0.33,1.58,0.79,1.43,2.02
	c-1.26,10.33-4.6,19.57-13.58,25.8c-6.15,4.27-12.83,6.54-20.43,5.06c-1.47-0.29-2.41-0.9-3.28-2.27
	c-4.26-6.76-10.19-11.81-17.07-15.75c-1.32-0.76-1.88-1.63-1.99-3.13c-0.47-6.39-1.24-12.76-1.54-19.16
	c-0.18-3.93,0.3-7.88,0.45-11.83c0.03-0.88-0.07-1.77-0.11-2.65C303.09,319.14,302.64,319.16,302.2,319.19z M330.96,341.06
	c-0.17-0.22-0.33-0.43-0.5-0.65c-4.83,1.18-5.67,2.94-4.16,8.74c-2.79,2.51-3.49,5.46-1.8,7.61c1.44,1.83,2.44,2.14,4.1,1.09
	c-0.59-0.32-1.25-0.47-1.54-0.87c-0.78-1.07-1.93-2.25-1.92-3.38c0-1.04,1.11-2.42,2.12-3.01c1.29-0.76,2.57-0.31,3.44,1.31
	c0.3,0.57,1.77,0.52,2.71,0.75c0.21-1.61,1.03-3.47,0.48-4.76c-0.71-1.69-2.29-0.63-3.26,0.34c-1.1,1.1-2,0.68-2.86-0.19
	c-1.75-1.76-1.16-4.43,1.22-5.73C329.65,341.93,330.29,341.48,330.96,341.06z M336.61,339.95c1.84,2.02,4.44,2.24,5.95,0.51
	C340.62,338.58,338.38,338.39,336.61,339.95z M333.93,359.37c1.91,2.18,4.38,2.39,6.07,0.65
	C338.07,358.27,336.12,358.03,333.93,359.37z"/>
<path class="st3" d="M266.23,344.52c-0.28-1.74-0.57-3.48-0.85-5.22c-0.3,0.02-0.6,0.05-0.89,0.07c0,1.15-0.11,2.31,0.02,3.45
	c0.82,7.58,0.09,15.03-1.98,22.33c-1.31,4.61-3.18,9-6.56,12.54c-3.59,3.76-7.81,3.57-10.31-0.96c-2.24-4.06-4.13-8.45-5.35-12.91
	c-3.53-12.91-4.89-26.2-5.96-39.52c-0.4-4.98-0.94-9.96,0.5-14.89c2.05-6.99,6.43-12.16,12.46-16.04c5.8-3.73,12.21-5.66,19.16-6.57
	c0,19.33,0,38.49,0,57.65C266.38,344.48,266.31,344.5,266.23,344.52z"/>
<path class="st3" d="M356.97,360.97c8.99,8.18,17.39,16.48,22.17,27.67c0.71,1.66,1.02,3.58,1.12,5.41c0.15,2.82-1.92,5.22-4.9,6.2
	c-5.42,1.77-10.29,0.46-14.74-2.75c-6.44-4.65-10.68-11.13-14.5-17.92c-1.12-2-2.07-4.09-3.2-6.34
	C348.68,370.31,353.69,366.8,356.97,360.97z"/>
<path class="st3" d="M236.62,290.86c0.52-0.76,1.06-1.73,1.76-2.57c1.67-2.02,3.47-1.78,4.37,0.62c0.5,1.31,0.82,2.72,1.01,4.11
	c0.08,0.54-0.24,1.37-0.67,1.72c-6.02,4.87-9.44,11.2-10.65,19.47c-1.28-1.46-2.54-2.39-3.1-3.64c-1.03-2.29-1.82-4.72-2.36-7.17
	c-0.37-1.66-0.26-3.45,1.82-4.33c0.36-0.15,0.63-1.09,0.56-1.61c-0.33-2.58,1.8-6.76,4.17-7.45
	C234.3,289.79,235.34,290.48,236.62,290.86z"/>
<path class="st4" d="M276.05,246.9c-0.63,1.74-1.05,2.9-1.58,4.35c-3.84-3.15-1.47-7.14-2.23-10.5c2.85-0.86,4.81-0.53,5.82,2.26
	c0.68,1.87,1.68,3.63,2.33,5.5c0.19,0.55-0.31,1.33-0.49,2.01c-0.56-0.29-1.22-0.47-1.64-0.89
	C277.56,248.94,277.01,248.09,276.05,246.9z"/>
<path class="st5" d="M269.46,283.32c-3.86-0.12-7.5-0.16-11-1.66C260.29,278,266.08,279.38,269.46,283.32z"/>
<path class="st4" d="M270.31,239.99c1.34,4.57-0.11,7.49-3.76,9.78c0.52-3.04,0.9-5.89,1.57-8.67
	C268.24,240.6,269.53,240.37,270.31,239.99z"/>
<path class="st5" d="M274.44,281.86c2.34-1.48,4.66-3.01,7.05-4.4c0.42-0.24,1.15,0.06,1.74,0.1c-0.2,0.63-0.22,1.62-0.63,1.82
	c-2.52,1.23-5.13,2.28-7.71,3.39C274.75,282.47,274.6,282.17,274.44,281.86z"/>
<path class="st0" d="M330.96,341.06c-0.66,0.42-1.3,0.87-1.99,1.25c-2.38,1.3-2.97,3.97-1.22,5.73c0.87,0.87,1.76,1.29,2.86,0.19
	c0.97-0.97,2.56-2.03,3.26-0.34c0.54,1.29-0.27,3.16-0.48,4.76c-0.94-0.23-2.4-0.18-2.71-0.75c-0.86-1.62-2.15-2.07-3.44-1.31
	c-1,0.59-2.11,1.98-2.12,3.01c0,1.13,1.15,2.32,1.92,3.38c0.3,0.41,0.95,0.55,1.54,0.87c-1.66,1.05-2.66,0.74-4.1-1.09
	c-1.69-2.15-0.99-5.1,1.8-7.61c-1.51-5.8-0.67-7.56,4.16-8.74C330.62,340.63,330.79,340.84,330.96,341.06z"/>
<path class="st0" d="M336.61,339.95c1.77-1.56,4.01-1.36,5.95,0.51C341.05,342.19,338.45,341.96,336.61,339.95z"/>
<path class="st0" d="M333.93,359.37c2.19-1.34,4.14-1.1,6.07,0.65C338.31,361.76,335.85,361.55,333.93,359.37z"/>
<circle class="st2" cx="292.57" cy="147.07" r="9.33"/>
<circle class="st2" cx="253.1" cy="147.07" r="9.33"/>
<circle class="st6" cx="253.1" cy="149.75" r="4.03"/>
<circle class="st0" cx="253.1" cy="151.3" r="2.05"/>
<circle class="st6" cx="292.57" cy="149.75" r="4.03"/>
<path class="st7" d="M204.63,152.06c11.54-6.34,29.71-18.12,45.75-36.3c10.83-12.27,29.24-20.45,47.02-25.8"/>
<path class="st7" d="M215.29,192.66c16.06,2.06,37.22,2.28,57.88-5c26.28-9.25,47.3-1.23,59.22,5.92"/>
<g>
	<path class="st8" d="M234.43,172.91c1.2,20.18,21.94,34.84,43,32.91c18.29-1.67,33.61-15.58,34.4-32.91"/>
	<path class="st8" d="M225.83,176.57c1.38-1,4.29-2.84,8.6-3.66c3.75-0.71,6.88-0.32,8.6,0"/>
	<path class="st8" d="M320.42,176.57c-1.38-1-4.29-2.84-8.6-3.66c-3.75-0.71-6.88-0.32-8.6,0"/>
</g>
<path class="st7" d="M338.29,180.26c0,0-42.45-33.29-40.56-90.3"/>
<path class="st8" d="M235.19,131.6c0,0,8.45-11.3,23.77-8.65"/>
<path class="st8" d="M310.66,131.6c0,0-8.45-11.3-23.77-8.65"/>
<circle class="st0" cx="292.57" cy="151.3" r="2.05"/>
<circle class="st4" cx="310.3" cy="380.33" r="3.54"/>
<circle class="st6" cx="310.3" cy="404.57" r="3.54"/>
<circle class="st4" cx="288.12" cy="397.75" r="3.54"/>
<circle class="st6" cx="277.98" cy="373.6" r="3.54"/>
<circle class="st6" cx="264.23" cy="415.27" r="3.54"/>
<circle class="st4" cx="251.58" cy="396.21" r="3.54"/>
<path class="st9" d="M238.42,426.69l0-0.01c-4.72-9.52-11.57-27.29-14.1-53.89"/>
<path class="st7" d="M251.86,432.01l0-0.01c-5.84-11.93-14.79-34.35-20.48-68.51"/>
<path class="st7" d="M282.05,431.3l0-0.01c-5.63-10-14.19-28.84-19.3-57.68"/>
<g>
	<path class="st0" d="M426.44,282.64c-0.49,0-0.98,0.02-1.47,0.06c0.27-0.73,0.41-1.49,0.41-2.28c0-4.74-5.1-8.59-11.39-8.59
		c-5.47,0-10.03,2.9-11.14,6.78c-1.01-0.27-2.09-0.41-3.21-0.41c-4.51,0-8.3,2.32-9.39,5.47c-1.82-0.65-3.86-1.01-6.01-1.01
		c-7.81,0-14.14,4.77-14.14,10.66c0,5.89,6.33,10.66,14.14,10.66c4.07,0,7.74-1.3,10.31-3.37c2.44,2.07,5.99,3.37,9.94,3.37
		c4.43,0,8.35-1.63,10.76-4.14c2.59,2.52,6.63,4.14,11.18,4.14c7.81,0,14.14-4.77,14.14-10.66
		C440.58,287.41,434.25,282.64,426.44,282.64z"/>
	<path class="st10" d="M426.44,280.73c-0.49,0-0.98,0.02-1.47,0.06c0.27-0.73,0.41-1.49,0.41-2.28c0-4.74-5.1-8.59-11.39-8.59
		c-5.47,0-10.03,2.9-11.14,6.78c-1.01-0.27-2.09-0.41-3.21-0.41c-4.51,0-8.3,2.32-9.39,5.47c-1.82-0.65-3.86-1.01-6.01-1.01
		c-7.81,0-14.14,4.77-14.14,10.66s6.33,10.66,14.14,10.66c4.07,0,7.74-1.3,10.31-3.37c2.44,2.07,5.99,3.37,9.94,3.37
		c4.43,0,8.35-1.63,10.76-4.14c2.59,2.52,6.63,4.14,11.18,4.14c7.81,0,14.14-4.77,14.14-10.66S434.25,280.73,426.44,280.73z"/>
</g>
<g>
	<path class="st0" d="M352.04,210.41c0.66,0,1.32,0.03,1.96,0.08c-0.36-0.97-0.55-2-0.55-3.06c0-6.35,6.82-11.49,15.24-11.49
		c7.31,0,13.42,3.88,14.9,9.06c1.34-0.36,2.79-0.55,4.3-0.55c6.03,0,11.11,3.1,12.56,7.31c2.44-0.87,5.17-1.35,8.04-1.35
		c10.44,0,18.91,6.38,18.91,14.26s-8.47,14.26-18.91,14.26c-5.44,0-10.35-1.74-13.8-4.51c-3.26,2.77-8.01,4.51-13.3,4.51
		c-5.92,0-11.16-2.18-14.39-5.54c-3.46,3.37-8.87,5.54-14.96,5.54c-10.44,0-18.91-6.38-18.91-14.26S341.6,210.41,352.04,210.41z"/>
	<path class="st11" d="M352.04,207.85c0.66,0,1.32,0.03,1.96,0.08c-0.36-0.97-0.55-2-0.55-3.06c0-6.35,6.82-11.49,15.24-11.49
		c7.31,0,13.42,3.88,14.9,9.06c1.34-0.36,2.79-0.55,4.3-0.55c6.03,0,11.11,3.1,12.56,7.31c2.44-0.87,5.17-1.35,8.04-1.35
		c10.44,0,18.91,6.38,18.91,14.26c0,7.87-8.47,14.26-18.91,14.26c-5.44,0-10.35-1.74-13.8-4.51c-3.26,2.77-8.01,4.51-13.3,4.51
		c-5.92,0-11.16-2.18-14.39-5.54c-3.46,3.37-8.87,5.54-14.96,5.54c-10.44,0-18.91-6.38-18.91-14.26
		C333.13,214.24,341.6,207.85,352.04,207.85z"/>
</g>
<g>
	<path class="st0" d="M202.8,239.25c-0.75,0-1.5,0.03-2.23,0.09c0.4-1.11,0.62-2.27,0.62-3.48c0-7.22-7.77-13.08-17.35-13.08
		c-8.32,0-15.27,4.42-16.96,10.32c-1.53-0.4-3.18-0.63-4.89-0.63c-6.87,0-12.64,3.53-14.3,8.32c-2.78-0.99-5.88-1.54-9.15-1.54
		c-11.89,0-21.53,7.27-21.53,16.23s9.64,16.23,21.53,16.23c6.2,0,11.78-1.98,15.7-5.14c3.71,3.15,9.11,5.14,15.14,5.14
		c6.74,0,12.71-2.49,16.39-6.31c3.94,3.83,10.1,6.31,17.03,6.31c11.89,0,21.53-7.27,21.53-16.23S214.69,239.25,202.8,239.25z"/>
	<path class="st11" d="M202.8,236.34c-0.75,0-1.5,0.03-2.23,0.09c0.4-1.11,0.62-2.27,0.62-3.48c0-7.22-7.77-13.08-17.35-13.08
		c-8.32,0-15.27,4.42-16.96,10.32c-1.53-0.4-3.18-0.63-4.89-0.63c-6.87,0-12.64,3.53-14.3,8.32c-2.78-0.99-5.88-1.54-9.15-1.54
		c-11.89,0-21.53,7.27-21.53,16.23s9.64,16.23,21.53,16.23c6.2,0,11.78-1.98,15.7-5.14c3.71,3.15,9.11,5.14,15.14,5.14
		c6.74,0,12.71-2.49,16.39-6.31c3.94,3.83,10.1,6.31,17.03,6.31c11.89,0,21.53-7.27,21.53-16.23S214.69,236.34,202.8,236.34z"/>
</g>
</svg>
