<svg width="191" height="162" viewBox="0 0 191 162" fill="none" xmlns="http://www.w3.org/2000/svg">
<path d="M71.2391 88.4453L40.8218 157.128" stroke="#212221" stroke-miterlimit="10"/>
<path d="M187.581 96.6279L116.765 68.8398" stroke="#212221" stroke-miterlimit="10"/>
<path d="M147.475 1.26303L3.06326 60.8073C1.37147 61.5048 0.565279 63.4423 1.26258 65.1347L38.5402 155.611C39.2376 157.303 41.1743 158.109 42.8661 157.412L187.278 97.8677C188.97 97.1701 189.776 95.2327 189.078 93.5402L151.801 3.06438C151.103 1.37196 149.167 0.565469 147.475 1.26303Z" fill="#D993A6" stroke="#2F272A" stroke-miterlimit="10"/>
<path d="M1.53003 62.6364L101.945 99.8178L149.843 1.46289" stroke="#2F272A" stroke-miterlimit="10"/>
<path d="M101.979 111.605C110.187 111.605 116.841 104.949 116.841 96.7381C116.841 88.5273 110.187 81.8711 101.979 81.8711C93.7717 81.8711 87.1179 88.5273 87.1179 96.7381C87.1179 104.949 93.7717 111.605 101.979 111.605Z" fill="#D0E2CB" stroke="#2F272A" stroke-miterlimit="10"/>
<path d="M97.5977 97.1853C98.6328 96.833 98.9951 95.1455 98.4069 93.4161C97.8187 91.6867 96.5028 90.5703 95.4677 90.9226C94.4326 91.275 94.0703 92.9625 94.6585 94.6919C95.2467 96.4213 96.5626 97.5376 97.5977 97.1853Z" fill="#2F272A"/>
<path d="M105.104 94.6209C106.139 94.2686 106.501 92.581 105.913 90.8516C105.325 89.1222 104.009 88.0059 102.974 88.3582C101.939 88.7105 101.576 90.398 102.165 92.1274C102.753 93.8568 104.069 94.9732 105.104 94.6209Z" fill="#2F272A"/>
<path d="M106.984 97.9757C107.163 97.9139 107.355 98.0101 107.41 98.1958C108.125 100.85 106.668 103.635 104.028 104.529C101.388 105.423 98.5357 104.11 97.4909 101.572C97.4221 101.4 97.5184 101.201 97.6902 101.139L106.984 97.9757Z" fill="#D993A6" stroke="#2F272A" stroke-miterlimit="10"/>
<path d="M95.25 145.767L177.965 111.611" stroke="#2F272A" stroke-miterlimit="10"/>
<path d="M79.7834 161.364L136.611 137.289" stroke="#2F272A" stroke-miterlimit="10"/>
</svg>
