<svg xmlns="http://www.w3.org/2000/svg" viewBox="0 0 500 500"><g id="freepik--background-simple--inject-2"><path d="M38.16,210.57S30.94,289,89.6,351.89s148.49,81.68,221,98.83,133.78-14.83,150-75.93-37.29-88.79-58.71-165S386.1,110.6,327.44,56.13,165.13,11.77,103.18,78,38.16,210.57,38.16,210.57Z" style="fill:#858435"></path><path d="M38.16,210.57S30.94,289,89.6,351.89s148.49,81.68,221,98.83,133.78-14.83,150-75.93-37.29-88.79-58.71-165S386.1,110.6,327.44,56.13,165.13,11.77,103.18,78,38.16,210.57,38.16,210.57Z" style="fill:#fff;opacity:0.7000000000000001"></path></g><g id="freepik--Icons--inject-2"><line x1="92.23" y1="200.6" x2="93.06" y2="201.15" style="fill:none;stroke:#263238;stroke-miterlimit:10"></line><line x1="94.74" y1="202.24" x2="247.97" y2="301.87" style="fill:none;stroke:#263238;stroke-miterlimit:10;stroke-dasharray:1.9975500106811523,1.9975500106811523"></line><polyline points="248.81 302.42 249.64 302.96 249.1 302.13" style="fill:none;stroke:#263238;stroke-miterlimit:10"></polyline><line x1="248.02" y1="300.46" x2="116.58" y2="98.36" style="fill:none;stroke:#263238;stroke-miterlimit:10;stroke-dasharray:1.9842400550842285,1.9842400550842285"></line><line x1="116.03" y1="97.53" x2="115.49" y2="96.69" style="fill:none;stroke:#263238;stroke-miterlimit:10"></line><line x1="407.06" y1="200.6" x2="406.23" y2="201.15" style="fill:none;stroke:#263238;stroke-miterlimit:10"></line><line x1="404.55" y1="202.24" x2="251.32" y2="301.87" style="fill:none;stroke:#263238;stroke-miterlimit:10;stroke-dasharray:1.9975500106811523,1.9975500106811523"></line><polyline points="250.48 302.42 249.64 302.96 250.19 302.13" style="fill:none;stroke:#263238;stroke-miterlimit:10"></polyline><line x1="251.27" y1="300.46" x2="382.71" y2="98.36" style="fill:none;stroke:#263238;stroke-miterlimit:10;stroke-dasharray:1.9842400550842285,1.9842400550842285"></line><line x1="383.25" y1="97.53" x2="383.8" y2="96.69" style="fill:none;stroke:#263238;stroke-miterlimit:10"></line><line x1="249.64" y1="65.67" x2="249.64" y2="66.67" style="fill:none;stroke:#263238;stroke-miterlimit:10"></line><line x1="249.64" y1="68.68" x2="249.64" y2="300.96" style="fill:none;stroke:#263238;stroke-miterlimit:10;stroke-dasharray:2.011039972305298,2.011039972305298"></line><line x1="249.64" y1="301.96" x2="249.64" y2="302.96" style="fill:none;stroke:#263238;stroke-miterlimit:10"></line><circle cx="251.51" cy="61.15" r="30.75" style="fill:#263238;stroke:#263238;stroke-miterlimit:10;stroke-width:2px"></circle><path d="M251.51,61.15l25.88-16.6a30.82,30.82,0,0,0-16.3-12.62Z" style="fill:#858435;stroke:#263238;stroke-miterlimit:10"></path><path d="M251.51,61.15,266,88.26a30.75,30.75,0,0,0,11.35-43.71Z" style="fill:#fff;stroke:#263238;stroke-miterlimit:10"></path><circle cx="378.67" cy="96.5" r="30.74" transform="translate(42.68 296.02) rotate(-45)" style="fill:none;stroke:#263238;stroke-miterlimit:10"></circle><circle cx="378.67" cy="96.5" r="26.65" style="fill:#263238"></circle><polygon points="394 96.5 368.19 81.59 368.19 111.4 394 96.5" style="fill:#fff"></polygon><circle cx="422.72" cy="196.79" r="32.08" transform="translate(132.88 562.03) rotate(-76.53)" style="fill:#263238"></circle><circle cx="422.72" cy="196.79" r="22.91" transform="translate(133.22 562.31) rotate(-76.58)" style="fill:#fff"></circle><circle cx="422.72" cy="196.79" r="13.75" transform="translate(133.56 562.58) rotate(-76.64)" style="fill:#263238"></circle><circle cx="422.72" cy="196.79" r="7.4" transform="translate(133.8 562.77) rotate(-76.67)" style="fill:#fff"></circle><path d="M463.6,181.4l-4.08-1.59,1.78-.87a.85.85,0,1,0-.74-1.53l-1.29.63,2.05-4.44L453.71,177l-1.11,4.27L422.35,196a.85.85,0,0,0-.39,1.14.83.83,0,0,0,1.13.39l30.35-14.78,3.31,1.87Z" style="fill:#263238"></path><circle cx="118.17" cy="95.16" r="32.07" style="fill:#fff;stroke:#263238;stroke-miterlimit:10;stroke-width:2px"></circle><ellipse cx="118.17" cy="95.16" rx="23.26" ry="32.07" style="fill:#fff;stroke:#263238;stroke-miterlimit:10"></ellipse><ellipse cx="118.17" cy="95.16" rx="9.9" ry="32.07" style="fill:#fff;stroke:#263238;stroke-miterlimit:10"></ellipse><line x1="101.18" y1="68.07" x2="135.73" y2="68.07" style="fill:none;stroke:#263238;stroke-miterlimit:10"></line><line x1="89.56" y1="80.64" x2="146.73" y2="80.64" style="fill:none;stroke:#263238;stroke-miterlimit:10"></line><line x1="86.26" y1="93.2" x2="150.18" y2="93.2" style="fill:none;stroke:#263238;stroke-miterlimit:10"></line><line x1="87.67" y1="105.77" x2="148.3" y2="105.77" style="fill:none;stroke:#263238;stroke-miterlimit:10"></line><line x1="96.31" y1="118.33" x2="140.6" y2="118.33" style="fill:none;stroke:#263238;stroke-miterlimit:10"></line><circle cx="76.19" cy="196.79" r="32.07" style="fill:#263238;stroke:#263238;stroke-miterlimit:10;stroke-width:2px"></circle><rect x="53.98" y="181.63" width="42.53" height="34.03" style="fill:#fff;stroke:#263238;stroke-miterlimit:10;stroke-width:2px"></rect><rect x="51.32" y="181.63" width="47.85" height="13.82" style="fill:#fff;stroke:#263238;stroke-miterlimit:10;stroke-width:2px"></rect><path d="M75.2,181.29s-10-11.71-11.71-11.15-6.13,8.36-3.62,9.2S75.2,181.29,75.2,181.29Z" style="fill:#858435"></path><path d="M75.29,181.29s10-11.71,11.71-11.15,6.14,8.36,3.63,9.2S75.29,181.29,75.29,181.29Z" style="fill:#858435"></path><polygon points="78.27 205.55 75.26 200.32 72.14 205.55 72.14 182.13 78.27 182.13 78.27 205.55" style="fill:#858435"></polygon></g><g id="freepik--Mail--inject-2"><polygon points="90.39 285.14 249.53 195.57 412.57 285.14 412.57 414.99 92.35 414.99 90.39 285.14" style="fill:#263238;stroke:#263238;stroke-linecap:round;stroke-linejoin:round"></polygon><rect x="132.38" y="219.73" width="238.22" height="211.86" style="fill:#fff;stroke:#263238;stroke-miterlimit:10"></rect><line x1="159.71" y1="256.83" x2="340.33" y2="256.83" style="fill:none;stroke:#263238;stroke-miterlimit:10"></line><line x1="159.71" y1="275.38" x2="340.33" y2="275.38" style="fill:none;stroke:#263238;stroke-miterlimit:10"></line><line x1="159.71" y1="293.93" x2="340.33" y2="293.93" style="fill:none;stroke:#263238;stroke-miterlimit:10"></line><line x1="159.71" y1="312.48" x2="340.33" y2="312.48" style="fill:none;stroke:#263238;stroke-miterlimit:10"></line><line x1="159.71" y1="331.03" x2="340.33" y2="331.03" style="fill:none;stroke:#263238;stroke-miterlimit:10"></line><line x1="159.71" y1="349.58" x2="340.33" y2="349.58" style="fill:none;stroke:#263238;stroke-miterlimit:10"></line><polygon points="412.57 463.81 90.39 463.81 90.39 285.14 251.49 394.49 412.57 285.14 412.57 463.81" style="fill:#858435;stroke:#263238;stroke-miterlimit:10"></polygon><line x1="90.39" y1="463.81" x2="207.53" y2="364.6" style="fill:none;stroke:#263238;stroke-miterlimit:10"></line><line x1="412.06" y1="463.81" x2="295.79" y2="364.44" style="fill:none;stroke:#263238;stroke-miterlimit:10"></line></g><g id="freepik--Character--inject-2"><path d="M286.33,160.67s-1.21,5.66.41,7.48,7.68,8.29,7.68,9.3-2,30.13-2,30.13l-9.3-6.67-5.66,17.39s14.15,6.07,20.83,7.28,7.88-.61,7.88-5.86-5.26-45.5-5.26-45.5,1.62-9.3,1.62-10.92.61-2.43-.81-3.24-12.94-2-12.94-2S286.33,159.05,286.33,160.67Z" style="fill:#fff;stroke:#263238;stroke-linecap:round;stroke-linejoin:round"></path><polygon points="283.33 203.36 280.26 218.94 277.44 218.3 283.33 203.36" style="fill:#263238;stroke:#263238;stroke-linecap:round;stroke-linejoin:round"></polygon><path d="M306,165.21l-22.91-3.08v-5.71a1,1,0,0,1,2,0v4L304.24,163l.33-4.62a1,1,0,1,1,1.95.14Z" style="fill:#263238"></path><polygon points="288.36 163.3 300.89 164.51 301.7 160.06 288.76 158.04 288.36 163.3" style="fill:#fff;stroke:#263238;stroke-linecap:round;stroke-linejoin:round"></polygon><path d="M286.13,163.91s0-5.06.61-5.46,9.3.2,9.3,1.41,0,1.82-1,1.82-3,.2-3,.2,4.65,4.25,3.23,8.09" style="fill:#fff;stroke:#263238;stroke-linecap:round;stroke-linejoin:round"></path><line x1="292.4" y1="207.58" x2="291.59" y2="216.48" style="fill:none;stroke:#263238;stroke-linecap:round;stroke-linejoin:round"></line><path d="M189.71,203.7S161.13,226,161.87,228.41s21.94,22.68,28.95,27.65,10.88,7.2,10.88,7.2l4.42,2.76s-1.84,3-.73,3.51,5.16,2.58,5.71,1.47,3.51-9.4,3.14-11.43-11.07-3.69-11.8-4.43-18.26-28-18.26-28l13.65-10.69Z" style="fill:#fff;stroke:#263238;stroke-linecap:round;stroke-linejoin:round"></path><polygon points="189.22 204.44 194.41 218.51 197.83 216.42 189.22 204.44" style="fill:#263238;stroke:#263238;stroke-linecap:round;stroke-linejoin:round"></polygon><path d="M206.12,266s1.3,2.77,3.51,3" style="fill:none;stroke:#263238;stroke-linecap:round;stroke-linejoin:round"></path><line x1="184.18" y1="227.11" x2="180.49" y2="220.66" style="fill:none;stroke:#263238;stroke-linecap:round;stroke-linejoin:round"></line><polygon points="208.71 429.02 208.41 445.41 221.84 445.7 223.03 427.84 208.71 429.02" style="fill:#fff;stroke:#263238;stroke-linecap:round;stroke-linejoin:round"></polygon><polygon points="208.76 428.13 208.76 432.18 222.69 432.83 223.01 428.62 208.76 428.13" style="fill:#263238;stroke:#263238;stroke-linecap:round;stroke-linejoin:round"></polygon><path d="M215.05,441.13s-1.77-6.94-4.43-7.09-4,1.92-5,3.84-7.53,8.41-9.75,10-7.08,3.69-7.82,8.41,2.06,6.65,4,7.09,10.63.59,15.8,0,19.26.81,20.08,0,1.92-3.4,1.18-5.17a24,24,0,0,0-2.07-3.69s1.48-4.28.59-6.64-2.66-5.32-2.36-6.65,3.54-4.13,1.33-4.28-5.76,2.51-8,3.25A19.41,19.41,0,0,1,215.05,441.13Z" style="fill:#263238;stroke:#263238;stroke-linecap:round;stroke-linejoin:round"></path><path d="M224.5,455.15c-2.07.3-10,4.13-15.06,5.32s-9.44,1.32-11.81.14-4.43-4.72-6.2-6.94-3.24,3.4-3.24,3.4l-.25.11c-.3,4.11,2.28,5.82,4.08,6.24s10.63.59,15.8,0,19.26.81,20.08,0,1.92-3.4,1.18-5.17a24,24,0,0,0-2.07-3.69C226.13,454.41,226.57,454.86,224.5,455.15Z" style="fill:#fff;stroke:#263238;stroke-linecap:round;stroke-linejoin:round"></path><path d="M203,442s4-.88,9,4l-2.65,2.21s-5.17-4-8.42-4Z" style="fill:#fff;stroke:#263238;stroke-linecap:round;stroke-linejoin:round"></path><path d="M199.26,445s4-.89,9,4l-2.65,2.22s-5.17-4-8.42-4Z" style="fill:#fff;stroke:#263238;stroke-linecap:round;stroke-linejoin:round"></path><line x1="210.92" y1="444.52" x2="215.05" y2="441.13" style="fill:none;stroke:#263238;stroke-linecap:round;stroke-linejoin:round"></line><path d="M205.61,451.17s1,2.21-.74,3.54-13.44-.89-13.29-2.51,5.61-5,5.61-5A22.59,22.59,0,0,1,205.61,451.17Z" style="fill:#fff;stroke:#263238;stroke-linecap:round;stroke-linejoin:round"></path><polygon points="293.42 429.02 293.71 445.41 280.28 445.7 279.1 427.84 293.42 429.02" style="fill:#fff;stroke:#263238;stroke-linecap:round;stroke-linejoin:round"></polygon><polygon points="279.36 430.88 279.36 433.31 293.61 433.15 293.45 429.59 279.04 429.43 279.36 430.88" style="fill:#263238;stroke:#263238;stroke-linecap:round;stroke-linejoin:round"></polygon><path d="M287.07,441.13s1.77-6.94,4.43-7.09,4,1.92,5,3.84,7.53,8.41,9.74,10,7.09,3.69,7.82,8.41-2.06,6.65-4,7.09-10.63.59-15.8,0-19.26.81-20.07,0-1.92-3.4-1.19-5.17a24,24,0,0,1,2.07-3.69s-1.48-4.28-.59-6.64,2.66-5.32,2.36-6.65-3.54-4.13-1.33-4.28,5.76,2.51,8,3.25A19.23,19.23,0,0,0,287.07,441.13Z" style="fill:#263238;stroke:#263238;stroke-linecap:round;stroke-linejoin:round"></path><path d="M277.62,455.15c2.07.3,10,4.13,15.06,5.32s9.45,1.32,11.81.14,4.43-4.72,6.2-6.94,3.25,3.4,3.25,3.4l.24.11c.3,4.11-2.28,5.82-4.08,6.24s-10.63.59-15.8,0-19.26.81-20.07,0-1.92-3.4-1.19-5.17a24,24,0,0,1,2.07-3.69C276,454.41,275.55,454.86,277.62,455.15Z" style="fill:#fff;stroke:#263238;stroke-linecap:round;stroke-linejoin:round"></path><path d="M299.17,442s-4-.88-9,4l2.66,2.21s5.16-4,8.41-4Z" style="fill:#fff;stroke:#263238;stroke-linecap:round;stroke-linejoin:round"></path><path d="M302.86,445s-4-.89-9,4l2.66,2.22s5.16-4,8.41-4Z" style="fill:#fff;stroke:#263238;stroke-linecap:round;stroke-linejoin:round"></path><line x1="291.2" y1="444.52" x2="287.07" y2="441.13" style="fill:none;stroke:#263238;stroke-linecap:round;stroke-linejoin:round"></line><path d="M296.52,451.17s-1,2.21.73,3.54,13.44-.89,13.29-2.51-5.61-5-5.61-5A22.51,22.51,0,0,0,296.52,451.17Z" style="fill:#fff;stroke:#263238;stroke-linecap:round;stroke-linejoin:round"></path><path d="M214.88,256s-7.81,31.89-10.74,58.91-7.49,115.53-7.49,115.53h35.8s10.74-89.83,12.37-105.77,1.62-26,1.62-26l20.18,131.81h42.63s-16.27-83.64-22.78-122-15.62-53.37-15.62-53.37Z" style="fill:#b0b0b0;stroke:#263238;stroke-linecap:round;stroke-linejoin:round"></path><path d="M245.47,258.31c-.31.93-8.79,13.67-6.19,14.64s7.49,1,7.49-1.62V260.91s.65,14.65,3.58,14,6.83,0,5.86-3.26S247.75,258,247.75,258,246.44,255.38,245.47,258.31Z" style="fill:#b0b0b0;stroke:#263238;stroke-linecap:round;stroke-linejoin:round"></path><path d="M246.81,259.38s7.38,10.48,6.67,11.43-1.67,1.9-2.38.48S246.81,259.38,246.81,259.38Z" style="fill:none;stroke:#263238;stroke-miterlimit:10"></path><path d="M246.57,258.19s-5.48,11.67-4.76,12.14a1.9,1.9,0,0,0,2.85-1.19C245.14,267.48,246.57,258.19,246.57,258.19Z" style="fill:none;stroke:#263238;stroke-miterlimit:10"></path><path d="M268.81,291.45c.3,1.65.56,3.21.74,4.61" style="fill:none;stroke:#263238;stroke-linecap:round;stroke-linejoin:round"></path><path d="M261.09,259.29s4.06,14.5,6.67,26.81" style="fill:none;stroke:#263238;stroke-linecap:round;stroke-linejoin:round"></path><path d="M258.16,259.29s2.6,18.22,3.9,23.1" style="fill:none;stroke:#263238;stroke-linecap:round;stroke-linejoin:round"></path><path d="M222.74,284.52c-.14,1.26-.26,2.41-.38,3.4" style="fill:none;stroke:#263238;stroke-linecap:round;stroke-linejoin:round"></path><path d="M225.29,259.29s-1.08,11.13-2,20.33" style="fill:none;stroke:#263238;stroke-linecap:round;stroke-linejoin:round"></path><line x1="222.69" y1="259.94" x2="221.38" y2="275.56" style="fill:none;stroke:#263238;stroke-linecap:round;stroke-linejoin:round"></line><path d="M245.49,126.5s12.13,1.21,9.3,7.48-5.66,7.48-6.27,7.48-5.46-7.48-5.46-7.48Z" style="fill:#263238;stroke:#263238;stroke-linecap:round;stroke-linejoin:round"></path><path d="M244.07,132.36s4.65,2.63,6.07,7.48,5.05,6.27,6.07,6.07,2.42,2.83,1.21,4.85l-1.21,2s1,13.75-.21,15.57-8.69.81-8.69.81-1.62,6.47-.2,10.52,5.66,6.06,7.28,6.06,5.05-2,9.7.41,20.22,14.15,20.22,14.15L276,223l-8.9-4.65,6.27,38.62-60.66,1.42s.61-27.5-1-32.56a59.39,59.39,0,0,0-4.25-9.7l-7.68,6.06-10.72-18.6s15.77-15.77,22-17.19,13.75.41,16.18-2.63.4-17.39.4-17.39-5.86-2-9.3-12.33,8.29-21,8.29-21S231.94,127.51,244.07,132.36Z" style="fill:#fff;stroke:#263238;stroke-linecap:round;stroke-linejoin:round"></path><polygon points="247.31 169.16 241.84 168.24 246.23 173.29 247.31 169.16" style="fill:#263238;stroke:#263238;stroke-linecap:round;stroke-linejoin:round"></polygon><path d="M244.74,143.31s0-3.84,3.44-3.84" style="fill:none;stroke:#263238;stroke-linecap:round;stroke-linejoin:round;stroke-width:2px"></path><path d="M253.78,157.23l-7.08-3.44s-.6,7.28,2,7.08S253.78,157.23,253.78,157.23Z" style="fill:#263238;stroke:#263238;stroke-linecap:round;stroke-linejoin:round"></path><path d="M246.85,147.06s2.28-2.47,4.18-.38" style="fill:none;stroke:#263238;stroke-linecap:round;stroke-linejoin:round"></path><path d="M246.65,156.1l6.36,2.07a11.19,11.19,0,0,0,.77-.94l-7.08-3.43S246.62,154.83,246.65,156.1Z" style="fill:#fff;stroke:#263238;stroke-linecap:round;stroke-linejoin:round"></path><path d="M207.07,141.06s-4.45-9.1-10.72-8.09-11.12,7.88-9.1,17.59c0,0,1,2.63,1.82,4.85,0,0-7.88-2.42-12.13,2.83s-1,10.72,3.84,13.35,7.69,2.43,7.69,2.43-10.72,3.23-6.88,7.28,15.57,1.41,13.14-2-4.24-3-4.24-3,9.7-3.64,8.69-6.27-5.86-4.65-5.86-4.65,9.3,3.24,14.36.2.6-16,.6-16Z" style="fill:#263238;stroke:#263238;stroke-linecap:round;stroke-linejoin:round"></path><path d="M247.71,122.05s1.62,5.66-1.21,10.51-8.9,13.15-9.71,22.45,1.82,20.83,3.44,24.67-2,4.65-4.65,4.45-3.64-1.82-3.64-5.46-.81-10.11-.81-10.11-10.31-1-15.16-3.85-11.93-12.53-8.9-23.65,11.12-14.36,16-16.38,11.53-1.82,16.18-2.83S247.51,119.62,247.71,122.05Z" style="fill:#263238;stroke:#263238;stroke-linecap:round;stroke-linejoin:round"></path><path d="M233,150.36l-1.82,7.28s-3.84-1.82-4.45-5.06,4-4.85,7.28-2" style="fill:#fff;stroke:#263238;stroke-linecap:round;stroke-linejoin:round"></path><line x1="292" y1="161.88" x2="289.37" y2="162.09" style="fill:none;stroke:#263238;stroke-linecap:round;stroke-linejoin:round"></line><polygon points="273.08 156.04 340.48 165.47 331.32 115.61 271 144.66 273.08 156.04" style="fill:#858435;stroke:#263238;stroke-linecap:round;stroke-linejoin:round"></polygon><rect x="261.94" y="145.48" width="10.18" height="11.52" transform="translate(-22.85 50.49) rotate(-10.36)" style="fill:#858435;stroke:#263238;stroke-linecap:round;stroke-linejoin:round"></rect><path d="M284.31,200.3s-15.57-11.73-20.22-14.15-8-.46-9.63-.41A22.64,22.64,0,0,1,235,195.45c-13.3-.17-17-7.57-17.8-9.73a32.45,32.45,0,0,0-6.06.63c-6.27,1.42-22,17.19-22,17.19l10.72,18.6,7.68-6.06a59.39,59.39,0,0,1,4.25,9.7c1.62,5.06,1,32.56,1,32.56l60.66-1.42-6.27-38.62L276,223Z" style="fill:#263238;stroke:#263238;stroke-linecap:round;stroke-linejoin:round"></path><circle cx="241.61" cy="220.65" r="18.66" transform="translate(-44.53 61.96) rotate(-13.39)" style="fill:none;stroke:#fff;stroke-miterlimit:10"></circle><polygon points="253.01 212.2 230.88 212.2 241.79 222.71 253.01 212.2" style="fill:#858435"></polygon><polygon points="246.22 220.39 253.92 227.19 253.92 213.17 246.22 220.39" style="fill:#858435"></polygon><polygon points="237.44 220.37 229.64 212.85 229.64 226.87 237.44 220.37" style="fill:#858435"></polygon><polygon points="245.24 221.3 241.78 224.55 238.41 221.3 230.29 228.07 252.9 228.07 245.24 221.3" style="fill:#858435"></polygon></g><g id="freepik--Floor--inject-2"><line x1="30.31" y1="463.81" x2="470.63" y2="463.81" style="fill:none;stroke:#263238;stroke-miterlimit:10"></line></g></svg>